<svg width="153" height="21" viewBox="0 0 153 21" fill="none" xmlns="http://www.w3.org/2000/svg">
<path d="M5.075 20.5H10.25L13.15 8.95L15.95 20.5H21.125L25.7 2.95H21.1L18.55 15.725L15.55 2.95H10.85L7.725 15.725L5.2 2.95H0.625L5.075 20.5ZM27.8439 20.5H32.1189V12.925C32.1189 11.025 33.1689 9.975 34.7939 9.975C36.4189 9.975 37.4689 11.025 37.4689 12.925V20.5H41.7189V12.35C41.7189 8.6 39.5939 6.4 36.4189 6.4C34.4939 6.4 32.9689 7.225 32.1189 8.425V2H27.8439V20.5ZM44.6896 20.5H48.9646V6.55H44.6896V20.5ZM46.8396 5.1C48.3396 5.1 49.3646 4.075 49.3646 2.8C49.3646 1.5 48.3396 0.474999 46.8396 0.474999C45.3146 0.474999 44.2896 1.5 44.2896 2.8C44.2896 4.075 45.3146 5.1 46.8396 5.1ZM52.7377 15.65C52.7377 19.275 54.7627 20.5 57.6627 20.5H59.8377V16.875H58.3127C57.3627 16.875 57.0127 16.525 57.0127 15.7V10.1H59.8127V6.55H57.0127V3.15H52.7377V6.55H51.0377V10.1H52.7377V15.65ZM68.3689 9.775C69.7939 9.775 70.9939 10.65 70.9939 12.175H65.6439C65.8939 10.625 66.9689 9.775 68.3689 9.775ZM75.0439 15.875H70.4939C70.1439 16.625 69.4689 17.225 68.2689 17.225C66.8939 17.225 65.7689 16.375 65.6189 14.55H75.2939C75.3439 14.125 75.3689 13.7 75.3689 13.3C75.3689 9.05 72.4939 6.35 68.4189 6.35C64.2689 6.35 61.3689 9.1 61.3689 13.525C61.3689 17.95 64.3189 20.7 68.4189 20.7C71.8939 20.7 74.3689 18.6 75.0439 15.875ZM76.8992 11.7C76.8992 16.95 80.5492 20.625 85.7242 20.625C89.8992 20.625 93.0492 18.3 94.0492 14.5H89.3492C88.6242 16 87.2992 16.75 85.6742 16.75C83.0492 16.75 81.2492 14.8 81.2492 11.7C81.2492 8.6 83.0492 6.65 85.6742 6.65C87.2992 6.65 88.6242 7.4 89.3492 8.9H94.0492C93.0492 5.1 89.8992 2.75 85.7242 2.75C80.5492 2.75 76.8992 6.45 76.8992 11.7ZM110.317 13.525C110.317 9.1 107.167 6.35 103.067 6.35C98.9922 6.35 95.8172 9.1 95.8172 13.525C95.8172 17.95 98.9172 20.7 103.017 20.7C107.117 20.7 110.317 17.95 110.317 13.525ZM100.167 13.525C100.167 11.15 101.517 10.05 103.067 10.05C104.567 10.05 105.967 11.15 105.967 13.525C105.967 15.875 104.542 17 103.017 17C101.467 17 100.167 15.875 100.167 13.525ZM126.481 13.5C126.481 17.9 129.206 20.7 132.606 20.7C134.681 20.7 136.156 19.75 136.931 18.525V20.5H141.206V6.55H136.931V8.525C136.181 7.3 134.706 6.35 132.631 6.35C129.206 6.35 126.481 9.1 126.481 13.5ZM136.931 13.525C136.931 15.75 135.506 16.975 133.881 16.975C132.281 16.975 130.831 15.725 130.831 13.5C130.831 11.275 132.281 10.075 133.881 10.075C135.506 10.075 136.931 11.3 136.931 13.525ZM148.574 14.025C148.574 11.625 149.749 10.925 151.774 10.925H152.949V6.4C151.074 6.4 149.549 7.4 148.574 8.875V6.55H144.299V20.5H148.574V14.025Z" fill="#37393F"/>
<path d="M112.585 20.5H116.86V2H112.585V20.5ZM119.958 20.5H124.233V2H119.958V20.5Z" fill="#6B77E5"/>
</svg>
